HIERARCHY
ROOT hip
{
	OFFSET 0.000000 0.000000 0.000000
	CHANNELS 6 Xposition Yposition Zposition Xrotation Zrotation Yrotation 
	JOINT abdomen
	{
		OFFSET 0.000000 3.422050 0.000000
		CHANNELS 3 Xrotation Zrotation Yrotation 
		JOINT chest
		{
			OFFSET 0.000000 8.486693 -0.684411
			CHANNELS 3 Xrotation Zrotation Yrotation 
			JOINT neck
			{
				OFFSET 0.000000 10.266162 -0.273764
				CHANNELS 3 Xrotation Zrotation Yrotation 
				JOINT head
				{
					OFFSET 0.000000 3.148285 0.000000
					CHANNELS 3 Xrotation Zrotation Yrotation 
					End Site
					{
						OFFSET 0.000000 3.148289 0.000000
					}
				}
			}
			JOINT lCollar
			{
				OFFSET 3.422053 6.707223 -0.821293
				CHANNELS 3 Yrotation Zrotation Xrotation 
				JOINT lShldr
				{
					OFFSET 3.285171 0.000000 0.000000
					CHANNELS 3 Zrotation Yrotation Xrotation 
					JOINT lForeArm
					{
						OFFSET 10.129278 0.000000 0.000000
						CHANNELS 3 Yrotation Zrotation Xrotation 
						JOINT lHand
						{
							OFFSET 8.486692 0.000000 0.000000
							CHANNELS 3 Zrotation Yrotation Xrotation 
							End Site
							{
								OFFSET 4.106464 0.000000 0.000000
							}
						}
					}
				}
			}
			JOINT rCollar
			{
				OFFSET -3.558935 6.707223 -0.821293
				CHANNELS 3 Yrotation Zrotation Xrotation 
				JOINT rShldr
				{
					OFFSET -3.148289 0.000000 0.000000
					CHANNELS 3 Zrotation Yrotation Xrotation 
					JOINT rForeArm
					{
						OFFSET -10.266159 0.000000 0.000000
						CHANNELS 3 Yrotation Zrotation Xrotation 
						JOINT rHand
						{
							OFFSET -8.349810 0.000000 0.000000
							CHANNELS 3 Zrotation Yrotation Xrotation 
							End Site
							{
								OFFSET -4.106464 0.000000 0.000000
							}
						}
					}
				}
			}
		}
	}
	JOINT lThigh
	{
		OFFSET 5.338403 -1.642589 1.368821
		CHANNELS 3 Xrotation Zrotation Yrotation 
		JOINT lShin
		{
			OFFSET -2.053232 -20.121670 0.000000
			CHANNELS 3 Xrotation Zrotation Yrotation 
			JOINT lFoot
			{
				OFFSET 0.000000 -19.300380 -1.231939
				CHANNELS 3 Xrotation Yrotation Zrotation 
				End Site
				{
					OFFSET 0.000000 -2.463878 4.653993
				}
			}
		}
	}
	JOINT rThigh
	{
		OFFSET -5.338403 -1.642589 1.368821
		CHANNELS 3 Xrotation Zrotation Yrotation 
		JOINT rShin
		{
			OFFSET 2.053232 -20.121670 0.000000
			CHANNELS 3 Xrotation Zrotation Yrotation 
			JOINT rFoot
			{
				OFFSET 0.000000 -19.300380 -1.231939
				CHANNELS 3 Xrotation Yrotation Zrotation 
				End Site
				{
					OFFSET 0.000000 -2.463878 4.653993
				}
			}
		}
	}
}
MOTION
Frames: 15
Frame Time: 0.066530
0.000000 43.528500 0.000000 0.000000 0.000000 0.000000 0.000000 0.000000 0.000000 0.000000 0.000000 0.000000 0.000000 0.000000 0.000000 0.000000 0.000000 0.000000 0.000000 0.000000 0.000000 0.000000 0.000000 0.000000 0.000000 0.000000 0.000000 0.000000 0.000000 0.000000 0.000000 0.000000 0.000000 0.000000 0.000000 0.000000 0.000000 0.000000 0.000000 0.000000 0.000000 0.000000 0.000000 0.000000 0.000000 0.000000 0.000000 0.000000 0.000000 0.000000 0.000000 0.000000 0.000000 0.000000 0.000000 0.000000 0.000000 0.000000 0.000000 0.000000 
0.000000 9.397011 0.000000 89.996941 0.000000 0.000000 -0.071690 0.000000 0.000000 -24.174242 -0.100000 -0.141309 13.996111 11.116623 24.999161 14.990376 -15.807534 40.008984 -8.938446 0.517020 -0.129715 0.319233 -31.599222 -27.068281 -119.185669 -5.638354 34.513924 9.006364 -1.621263 -0.238205 8.934938 -0.520491 -0.129459 -0.322855 31.583389 -27.068182 119.180672 5.635001 34.517273 -9.019759 1.635546 -0.190407 0.000000 9.016106 0.000000 0.008741 -0.022733 0.008743 51.165604 -0.013305 0.000554 0.000000 -9.019614 0.000000 0.008742 0.019236 -0.012238 51.165600 0.007886 -0.003775 
0.000000 9.397011 0.000000 89.996941 0.000000 0.000000 -0.071690 0.000000 0.000000 -24.174244 -0.100000 -0.141309 13.996111 11.116623 24.999161 14.910627 -15.757894 40.056091 -8.938446 0.517020 -0.129715 0.319233 -31.599222 -27.068281 -119.185669 -5.638353 34.513924 9.006364 -1.621263 -0.238205 8.934938 -0.520491 -0.129459 -0.322855 31.583389 -27.068182 119.180672 5.635001 34.517273 -9.019759 1.635546 -0.190407 0.000000 9.016106 0.000000 0.008741 -0.022733 0.008743 51.165604 -0.013305 0.000554 0.000000 -9.019614 0.000000 0.008742 0.019236 -0.012238 51.165600 0.007886 -0.003775 
0.000000 9.397011 0.000000 89.996941 0.000000 0.000000 -0.071690 0.000000 0.000000 -24.174242 -0.100000 -0.141309 13.996111 11.116623 24.999161 14.830936 -15.708187 40.103115 -8.938446 0.517020 -0.129715 0.319234 -31.599226 -27.068281 -119.185669 -5.638354 34.513924 9.006365 -1.621263 -0.238205 8.934938 -0.520491 -0.129459 -0.322855 31.583393 -27.068184 119.180672 5.635005 34.517277 -9.019759 1.635546 -0.190407 0.000000 9.016107 0.000000 0.008741 -0.022733 0.008743 51.165604 -0.013305 0.000554 0.000000 -9.019614 0.000000 0.008742 0.019236 -0.012238 51.165600 0.007886 -0.003775 
0.000000 9.397011 0.000000 89.996941 0.000000 0.000000 -0.071690 0.000000 0.000000 -24.174244 -0.100000 -0.141309 13.996111 11.116624 24.999161 14.751302 -15.658416 40.150070 -8.938446 0.517020 -0.129715 0.319233 -31.599222 -27.068281 -119.185669 -5.638353 34.513924 9.006364 -1.621263 -0.238205 8.934938 -0.520491 -0.129459 -0.322855 31.583389 -27.068182 119.180672 5.635001 34.517273 -9.019759 1.635546 -0.190407 0.000000 9.016106 0.000000 0.008741 -0.022733 0.008743 51.165607 -0.013305 0.000554 0.000000 -9.019614 0.000000 0.008742 0.019236 -0.012238 51.165604 0.007886 -0.003775 
0.000000 9.397011 0.000000 89.996941 0.000000 0.000000 -0.071690 0.000000 0.000000 -24.174242 -0.100000 -0.141309 13.996112 11.116625 24.999163 14.671715 -15.608572 40.196941 -8.938447 0.517020 -0.129715 0.319233 -31.599222 -27.068281 -119.185669 -5.638354 34.513924 9.006364 -1.621263 -0.238205 8.934938 -0.520491 -0.129460 -0.322856 31.583389 -27.068184 119.180672 5.635000 34.517277 -9.019760 1.635546 -0.190407 0.000000 9.016106 0.000000 0.008741 -0.022733 0.008743 51.165604 -0.013305 0.000554 0.000000 -9.019614 0.000000 0.008742 0.019236 -0.012238 51.165600 0.007886 -0.003775 
0.000000 9.397011 0.000000 89.996941 0.000000 0.000000 -0.071690 0.000000 0.000000 -24.174244 -0.100000 -0.141309 13.996111 11.116623 24.999161 14.592184 -15.558661 40.243721 -8.938447 0.517020 -0.129715 0.319233 -31.599222 -27.068283 -119.185669 -5.638352 34.513924 9.006364 -1.621263 -0.238205 8.934938 -0.520491 -0.129460 -0.322855 31.583389 -27.068182 119.180672 5.635001 34.517277 -9.019760 1.635546 -0.190407 0.000000 9.016106 0.000000 0.008741 -0.022733 0.008743 51.165604 -0.013305 0.000554 0.000000 -9.019615 0.000000 0.008742 0.019236 -0.012238 51.165600 0.007886 -0.003775 
0.000000 9.397011 0.000000 89.996941 0.000000 0.000000 -0.071690 0.000000 0.000000 -24.174238 -0.100000 -0.141309 13.996111 11.116622 24.999161 14.512711 -15.508687 40.290447 -8.938445 0.517020 -0.129715 0.319233 -31.599222 -27.068281 -119.185669 -5.638355 34.513920 9.006364 -1.621263 -0.238205 8.934937 -0.520491 -0.129459 -0.322854 31.583385 -27.068180 119.180672 5.635002 34.517273 -9.019758 1.635545 -0.190407 0.000000 9.016106 0.000000 0.008741 -0.022733 0.008743 51.165596 -0.013305 0.000554 0.000000 -9.019614 0.000000 0.008742 0.019236 -0.012238 51.165592 0.007886 -0.003775 
0.000000 9.397011 0.000000 89.996933 0.000000 0.000000 -0.071690 0.000000 0.000000 -24.174240 -0.100000 -0.141309 13.996109 11.116623 24.999159 14.433290 -15.458644 40.337078 -8.938445 0.517020 -0.129715 0.319233 -31.599222 -27.068281 -119.185669 -5.638355 34.513920 9.006363 -1.621263 -0.238205 8.934938 -0.520491 -0.129459 -0.322855 31.583389 -27.068182 119.180672 5.635002 34.517273 -9.019759 1.635546 -0.190407 0.000000 9.016106 0.000000 0.008741 -0.022733 0.008743 51.165604 -0.013305 0.000554 0.000000 -9.019614 0.000000 0.008742 0.019236 -0.012238 51.165600 0.007886 -0.003775 
0.000000 9.397011 0.000000 89.996941 0.000000 0.000000 -0.071690 0.000000 0.000000 -24.174238 -0.100000 -0.141309 13.996109 11.116622 24.999159 14.353923 -15.408535 40.383633 -8.938445 0.517020 -0.129715 0.319233 -31.599222 -27.068281 -119.185669 -5.638355 34.513920 9.006363 -1.621263 -0.238205 8.934938 -0.520491 -0.129459 -0.322856 31.583389 -27.068182 119.180656 5.635000 34.517269 -9.019758 1.635545 -0.190407 0.000000 9.016105 0.000000 0.008741 -0.022733 0.008743 51.165604 -0.013305 0.000554 0.000000 -9.019614 0.000000 0.008742 0.019236 -0.012238 51.165600 0.007886 -0.003775 
0.000000 9.397011 0.000000 89.996941 0.000000 0.000000 -0.071690 0.000000 0.000000 -24.174240 -0.100000 -0.141309 13.996111 11.116623 24.999159 14.274608 -15.358356 40.430107 -8.938446 0.517020 -0.129715 0.319233 -31.599222 -27.068281 -119.185669 -5.638354 34.513924 9.006363 -1.621263 -0.238205 8.934938 -0.520491 -0.129459 -0.322855 31.583389 -27.068178 119.180672 5.635002 34.517273 -9.019759 1.635545 -0.190407 0.000000 9.016106 0.000000 0.008741 -0.022733 0.008743 51.165604 -0.013305 0.000554 0.000000 -9.019614 0.000000 0.008742 0.019236 -0.012238 51.165600 0.007886 -0.003775 
0.000000 9.397011 0.000000 89.996941 0.000000 0.000000 -0.071690 0.000000 0.000000 -24.174242 -0.100000 -0.141309 13.996111 11.116623 24.999161 14.195354 -15.308116 40.476505 -8.938445 0.517020 -0.129715 0.319234 -31.599222 -27.068283 -119.185669 -5.638355 34.513920 9.006364 -1.621263 -0.238205 8.934938 -0.520491 -0.129459 -0.322856 31.583389 -27.068182 119.180672 5.635001 34.517273 -9.019759 1.635546 -0.190407 0.000000 9.016106 0.000000 0.008741 -0.022733 0.008743 51.165604 -0.013305 0.000554 0.000000 -9.019614 0.000000 0.008742 0.019236 -0.012238 51.165600 0.007886 -0.003775 
0.000000 9.397011 0.000000 89.996941 0.000000 0.000000 -0.071690 0.000000 0.000000 -24.174242 -0.100000 -0.141309 13.996111 11.116623 24.999161 14.116147 -15.257804 40.522823 -8.938446 0.517020 -0.129715 0.319234 -31.599222 -27.068283 -119.185669 -5.638354 34.513924 9.006364 -1.621263 -0.238205 8.934938 -0.520491 -0.129459 -0.322855 31.583389 -27.068182 119.180672 5.635001 34.517273 -9.019759 1.635546 -0.190407 0.000000 9.016106 0.000000 0.008741 -0.022733 0.008743 51.165604 -0.013305 0.000554 0.000000 -9.019614 0.000000 0.008742 0.019236 -0.012238 51.165600 0.007886 -0.003775 
0.000000 9.397011 0.000000 89.996941 0.000000 0.000000 -0.071690 0.000000 0.000000 -24.174242 -0.100000 -0.141309 13.996111 11.116623 24.999161 14.037001 -15.207434 40.569065 -8.938446 0.517020 -0.129715 0.319234 -31.599222 -27.068283 -119.185669 -5.638354 34.513924 9.006364 -1.621263 -0.238205 8.934938 -0.520491 -0.129459 -0.322855 31.583389 -27.068182 119.180672 5.635001 34.517273 -9.019759 1.635546 -0.190407 0.000000 9.016106 0.000000 0.008741 -0.022733 0.008743 51.165604 -0.013305 0.000554 0.000000 -9.019614 0.000000 0.008742 0.019236 -0.012238 51.165600 0.007886 -0.003775 
0.000000 9.397011 0.000000 89.996941 0.000000 0.000000 -0.071690 0.000000 0.000000 -24.174242 -0.100000 -0.141309 13.996111 11.116624 24.999161 13.957901 -15.156987 40.615215 -8.938446 0.517020 -0.129715 0.319233 -31.599222 -27.068281 -119.185669 -5.638354 34.513924 9.006365 -1.621263 -0.238205 8.934938 -0.520491 -0.129460 -0.322855 31.583389 -27.068182 119.180672 5.635001 34.517273 -9.019759 1.635546 -0.190407 0.000000 9.016106 0.000000 0.008741 -0.022733 0.008743 51.165604 -0.013305 0.000554 0.000000 -9.019614 0.000000 0.008742 0.019236 -0.012238 51.165600 0.007886 -0.003775 
